<svg width="29" height="29" viewBox="0 0 29 29" fill="none" xmlns="http://www.w3.org/2000/svg">
<path d="M14.517 15.4628L6.81387 23.1659C6.28145 23.6983 5.42051 23.6983 4.89375 23.1659L3.61367 21.8858C3.08125 21.3534 3.08125 20.4925 3.61367 19.9657L9.07383 14.5056L3.61367 9.04541C3.08125 8.51299 3.08125 7.65205 3.61367 7.12529L4.88809 5.83389C5.42051 5.30146 6.28145 5.30146 6.8082 5.83389L14.5113 13.537C15.0494 14.0694 15.0494 14.9304 14.517 15.4628ZM25.392 13.537L17.6889 5.83389C17.1564 5.30146 16.2955 5.30146 15.7687 5.83389L14.4887 7.11396C13.9562 7.64639 13.9562 8.50732 14.4887 9.03408L19.9488 14.4942L14.4887 19.9544C13.9562 20.4868 13.9562 21.3478 14.4887 21.8745L15.7687 23.1546C16.3012 23.687 17.1621 23.687 17.6889 23.1546L25.392 15.4515C25.9244 14.9304 25.9244 14.0694 25.392 13.537Z" fill="white"/>
</svg>
