<svg width="48" height="45" viewBox="0 0 48 45" fill="none" xmlns="http://www.w3.org/2000/svg">
<rect width="48" height="45" rx="10" fill="#7F72C6"/>
<g clip-path="url(#clip0_236_45)">
<path d="M20.5938 20.547H28.4062C28.8379 20.547 29.1875 20.1974 29.1875 19.7658V18.9845C29.1875 18.5529 28.8379 18.2033 28.4062 18.2033H20.5938C20.1621 18.2033 19.8125 18.5529 19.8125 18.9845V19.7658C19.8125 20.1974 20.1621 20.547 20.5938 20.547ZM19.8125 24.4533C19.8125 24.8849 20.1621 25.2345 20.5938 25.2345H28.4062C28.8379 25.2345 29.1875 24.8849 29.1875 24.4533V23.672C29.1875 23.2404 28.8379 22.8908 28.4062 22.8908H20.5938C20.1621 22.8908 19.8125 23.2404 19.8125 23.672V24.4533ZM24.5 30.3678C23.6982 30.3678 22.8965 30.1208 22.2119 29.6261L12 22.2492V32.6564C12 33.9508 13.0493 35.0002 14.3438 35.0002H34.6562C35.9507 35.0002 37 33.9508 37 32.6564V22.2492L26.7881 29.6261C26.1035 30.1203 25.3018 30.3678 24.5 30.3678ZM36.1021 17.9567C35.6699 17.6178 35.2603 17.299 34.6562 16.8429V14.6877C34.6562 13.3932 33.6069 12.3439 32.3125 12.3439H28.5259C28.3774 12.2365 28.2393 12.1359 28.0845 12.0236C27.2637 11.4245 25.6328 9.98306 24.5 10.0002C23.3672 9.98306 21.7368 11.4245 20.9155 12.0236C20.7607 12.1359 20.6226 12.2365 20.4741 12.3439H16.6875C15.3931 12.3439 14.3438 13.3932 14.3438 14.6877V16.8429C13.7397 17.2985 13.3301 17.6178 12.8979 17.9567C12.6182 18.1759 12.392 18.4558 12.2365 18.7754C12.0809 19.0949 12 19.4456 12 19.8009V20.321L16.6875 23.7072V14.6877H32.3125V23.7072L37 20.321V19.8009C37 19.0812 36.6689 18.401 36.1021 17.9567Z" fill="white"/>
</g>
<defs>
<clipPath id="clip0_236_45">
<rect width="25" height="25" fill="white" transform="translate(12 10)"/>
</clipPath>
</defs>
</svg>
