<svg width="48" height="45" viewBox="0 0 48 45" fill="none" xmlns="http://www.w3.org/2000/svg">
<rect width="48" height="45" rx="10" fill="#7F72C6"/>
<path d="M24.5 36C26.2246 36 27.6236 34.6011 27.6236 32.875H21.3765C21.3765 34.6011 22.7754 36 24.5 36ZM35.0171 28.6899C34.0738 27.6763 32.3086 26.1514 32.3086 21.1562C32.3086 17.3623 29.6485 14.3252 26.0616 13.5801V12.5625C26.0616 11.6997 25.3623 11 24.5 11C23.6377 11 22.9385 11.6997 22.9385 12.5625V13.5801C19.3516 14.3252 16.6914 17.3623 16.6914 21.1562C16.6914 26.1514 14.9263 27.6763 13.9829 28.6899C13.69 29.0049 13.5601 29.3813 13.5625 29.75C13.5679 30.5508 14.1963 31.3125 15.1299 31.3125H33.8702C34.8037 31.3125 35.4327 30.5508 35.4375 29.75C35.44 29.3813 35.3101 29.0044 35.0171 28.6899Z" fill="white"/>
</svg>
