<svg width="48" height="45" viewBox="0 0 48 45" fill="none" xmlns="http://www.w3.org/2000/svg">
<rect width="48" height="45" rx="10" fill="#7F72C6"/>
<path d="M34.8885 26.0196L32.8084 24.8184C33.0184 23.6856 33.0184 22.5235 32.8084 21.3907L34.8885 20.1895C35.1277 20.0528 35.2352 19.7696 35.157 19.5059C34.615 17.7676 33.6922 16.1954 32.4861 14.8868C32.3006 14.6866 31.9979 14.6377 31.7635 14.7745L29.6834 15.9756C28.8094 15.2237 27.8035 14.6426 26.7147 14.2618V11.8643C26.7147 11.5909 26.5242 11.3516 26.2557 11.293C24.4637 10.8926 22.6277 10.9122 20.9236 11.293C20.6551 11.3516 20.4647 11.5909 20.4647 11.8643V14.2666C19.3807 14.6524 18.3748 15.2334 17.4959 15.9805L15.4207 14.7793C15.1815 14.6426 14.8836 14.6866 14.6981 14.8916C13.492 16.1954 12.5691 17.7676 12.0272 19.5108C11.9441 19.7745 12.0565 20.0577 12.2957 20.1944L14.3758 21.3956C14.1658 22.5284 14.1658 23.6905 14.3758 24.8233L12.2957 26.0245C12.0565 26.1612 11.949 26.4444 12.0272 26.7081C12.5691 28.4463 13.492 30.0186 14.6981 31.3272C14.8836 31.5274 15.1863 31.5762 15.4207 31.4395L17.5008 30.2383C18.3748 30.9903 19.3807 31.5713 20.4695 31.9522V34.3545C20.4695 34.628 20.66 34.8672 20.9285 34.9258C22.7205 35.3262 24.5565 35.3067 26.2606 34.9258C26.5291 34.8672 26.7195 34.628 26.7195 34.3545V31.9522C27.8035 31.5665 28.8094 30.9854 29.6883 30.2383L31.7684 31.4395C32.0076 31.5762 32.3055 31.5323 32.491 31.3272C33.6971 30.0235 34.6199 28.4512 35.1619 26.7081C35.2352 26.4395 35.1277 26.1563 34.8885 26.0196ZM23.5897 27.0108C21.4363 27.0108 19.6834 25.2579 19.6834 23.1045C19.6834 20.9512 21.4363 19.1983 23.5897 19.1983C25.743 19.1983 27.4959 20.9512 27.4959 23.1045C27.4959 25.2579 25.743 27.0108 23.5897 27.0108Z" fill="white"/>
</svg>
