<svg width="48" height="45" viewBox="0 0 48 45" fill="none" xmlns="http://www.w3.org/2000/svg">
<rect width="48" height="45" rx="10" fill="#7F72C6"/>
<path d="M37.2676 23.3301L29.0645 31.5333C28.332 32.2657 27.0625 31.753 27.0625 30.7032V26.0157H20.4219C19.7725 26.0157 19.25 25.4932 19.25 24.8438V20.1563C19.25 19.5069 19.7725 18.9844 20.4219 18.9844H27.0625V14.2969C27.0625 13.252 28.3271 12.7344 29.0645 13.4669L37.2676 21.67C37.7217 22.129 37.7217 22.8712 37.2676 23.3301ZM22.375 31.2891V29.336C22.375 29.0137 22.1113 28.7501 21.7891 28.7501H17.6875C16.8232 28.7501 16.125 28.0518 16.125 27.1876V17.8126C16.125 16.9483 16.8232 16.2501 17.6875 16.2501H21.7891C22.1113 16.2501 22.375 15.9864 22.375 15.6641V13.711C22.375 13.3887 22.1113 13.1251 21.7891 13.1251H17.6875C15.0996 13.1251 13 15.2247 13 17.8126V27.1876C13 29.7755 15.0996 31.8751 17.6875 31.8751H21.7891C22.1113 31.8751 22.375 31.6114 22.375 31.2891Z" fill="white"/>
</svg>
