<svg width="48" height="45" viewBox="0 0 48 45" fill="none" xmlns="http://www.w3.org/2000/svg">
<rect width="48" height="45" rx="10" fill="#7F72C6"/>
<path d="M25.2812 21.9375H23.7188C23.5115 21.9375 23.3128 22.0198 23.1663 22.1663C23.0198 22.3128 22.9375 22.5115 22.9375 22.7188V24.2812C22.9375 24.4885 23.0198 24.6872 23.1663 24.8337C23.3128 24.9802 23.5115 25.0625 23.7188 25.0625H25.2812C25.4885 25.0625 25.6872 24.9802 25.8337 24.8337C25.9802 24.6872 26.0625 24.4885 26.0625 24.2812V22.7188C26.0625 22.5115 25.9802 22.3128 25.8337 22.1663C25.6872 22.0198 25.4885 21.9375 25.2812 21.9375ZM29.9688 21.9375H28.4062C28.199 21.9375 28.0003 22.0198 27.8538 22.1663C27.7073 22.3128 27.625 22.5115 27.625 22.7188V24.2812C27.625 24.4885 27.7073 24.6872 27.8538 24.8337C28.0003 24.9802 28.199 25.0625 28.4062 25.0625H29.9688C30.176 25.0625 30.3747 24.9802 30.5212 24.8337C30.6677 24.6872 30.75 24.4885 30.75 24.2812V22.7188C30.75 22.5115 30.6677 22.3128 30.5212 22.1663C30.3747 22.0198 30.176 21.9375 29.9688 21.9375ZM34.6562 21.9375H33.0938C32.8865 21.9375 32.6878 22.0198 32.5413 22.1663C32.3948 22.3128 32.3125 22.5115 32.3125 22.7188V24.2812C32.3125 24.4885 32.3948 24.6872 32.5413 24.8337C32.6878 24.9802 32.8865 25.0625 33.0938 25.0625H34.6562C34.8635 25.0625 35.0622 24.9802 35.2087 24.8337C35.3552 24.6872 35.4375 24.4885 35.4375 24.2812V22.7188C35.4375 22.5115 35.3552 22.3128 35.2087 22.1663C35.0622 22.0198 34.8635 21.9375 34.6562 21.9375ZM20.5938 21.9375H19.0312C18.824 21.9375 18.6253 22.0198 18.4788 22.1663C18.3323 22.3128 18.25 22.5115 18.25 22.7188V24.2812C18.25 24.4885 18.3323 24.6872 18.4788 24.8337C18.6253 24.9802 18.824 25.0625 19.0312 25.0625H20.5938C20.801 25.0625 20.9997 24.9802 21.1462 24.8337C21.2927 24.6872 21.375 24.4885 21.375 24.2812V22.7188C21.375 22.5115 21.2927 22.3128 21.1462 22.1663C20.9997 22.0198 20.801 21.9375 20.5938 21.9375ZM25.2812 31.3125H23.7188C23.5115 31.3125 23.3128 31.3948 23.1663 31.5413C23.0198 31.6878 22.9375 31.8865 22.9375 32.0938V33.6562C22.9375 33.8635 23.0198 34.0622 23.1663 34.2087C23.3128 34.3552 23.5115 34.4375 23.7188 34.4375H25.2812C25.4885 34.4375 25.6872 34.3552 25.8337 34.2087C25.9802 34.0622 26.0625 33.8635 26.0625 33.6562V32.0938C26.0625 31.8865 25.9802 31.6878 25.8337 31.5413C25.6872 31.3948 25.4885 31.3125 25.2812 31.3125ZM29.9688 31.3125H28.4062C28.199 31.3125 28.0003 31.3948 27.8538 31.5413C27.7073 31.6878 27.625 31.8865 27.625 32.0938V33.6562C27.625 33.8635 27.7073 34.0622 27.8538 34.2087C28.0003 34.3552 28.199 34.4375 28.4062 34.4375H29.9688C30.176 34.4375 30.3747 34.3552 30.5212 34.2087C30.6677 34.0622 30.75 33.8635 30.75 33.6562V32.0938C30.75 31.8865 30.6677 31.6878 30.5212 31.5413C30.3747 31.3948 30.176 31.3125 29.9688 31.3125ZM34.6562 31.3125H33.0938C32.8865 31.3125 32.6878 31.3948 32.5413 31.5413C32.3948 31.6878 32.3125 31.8865 32.3125 32.0938V33.6562C32.3125 33.8635 32.3948 34.0622 32.5413 34.2087C32.6878 34.3552 32.8865 34.4375 33.0938 34.4375H34.6562C34.8635 34.4375 35.0622 34.3552 35.2087 34.2087C35.3552 34.0622 35.4375 33.8635 35.4375 33.6562V32.0938C35.4375 31.8865 35.3552 31.6878 35.2087 31.5413C35.0622 31.3948 34.8635 31.3125 34.6562 31.3125ZM34.6562 26.625H33.0938C32.8865 26.625 32.6878 26.7073 32.5413 26.8538C32.3948 27.0003 32.3125 27.199 32.3125 27.4062V28.9688C32.3125 29.176 32.3948 29.3747 32.5413 29.5212C32.6878 29.6677 32.8865 29.75 33.0938 29.75H34.6562C34.8635 29.75 35.0622 29.6677 35.2087 29.5212C35.3552 29.3747 35.4375 29.176 35.4375 28.9688V27.4062C35.4375 27.199 35.3552 27.0003 35.2087 26.8538C35.0622 26.7073 34.8635 26.625 34.6562 26.625ZM34.6562 17.25H33.0938C32.8865 17.25 32.6878 17.3323 32.5413 17.4788C32.3948 17.6253 32.3125 17.824 32.3125 18.0312V19.5938C32.3125 19.801 32.3948 19.9997 32.5413 20.1462C32.6878 20.2927 32.8865 20.375 33.0938 20.375H34.6562C34.8635 20.375 35.0622 20.2927 35.2087 20.1462C35.3552 19.9997 35.4375 19.801 35.4375 19.5938V18.0312C35.4375 17.824 35.3552 17.6253 35.2087 17.4788C35.0622 17.3323 34.8635 17.25 34.6562 17.25ZM25.2812 26.625H23.7188C23.5115 26.625 23.3128 26.7073 23.1663 26.8538C23.0198 27.0003 22.9375 27.199 22.9375 27.4062V28.9688C22.9375 29.176 23.0198 29.3747 23.1663 29.5212C23.3128 29.6677 23.5115 29.75 23.7188 29.75H25.2812C25.4885 29.75 25.6872 29.6677 25.8337 29.5212C25.9802 29.3747 26.0625 29.176 26.0625 28.9688V27.4062C26.0625 27.199 25.9802 27.0003 25.8337 26.8538C25.6872 26.7073 25.4885 26.625 25.2812 26.625ZM25.2812 17.25H23.7188C23.5115 17.25 23.3128 17.3323 23.1663 17.4788C23.0198 17.6253 22.9375 17.824 22.9375 18.0312V19.5938C22.9375 19.801 23.0198 19.9997 23.1663 20.1462C23.3128 20.2927 23.5115 20.375 23.7188 20.375H25.2812C25.4885 20.375 25.6872 20.2927 25.8337 20.1462C25.9802 19.9997 26.0625 19.801 26.0625 19.5938V18.0312C26.0625 17.824 25.9802 17.6253 25.8337 17.4788C25.6872 17.3323 25.4885 17.25 25.2812 17.25ZM20.5938 31.3125H19.0312C18.824 31.3125 18.6253 31.3948 18.4788 31.5413C18.3323 31.6878 18.25 31.8865 18.25 32.0938V33.6562C18.25 33.8635 18.3323 34.0622 18.4788 34.2087C18.6253 34.3552 18.824 34.4375 19.0312 34.4375H20.5938C20.801 34.4375 20.9997 34.3552 21.1462 34.2087C21.2927 34.0622 21.375 33.8635 21.375 33.6562V32.0938C21.375 31.8865 21.2927 31.6878 21.1462 31.5413C20.9997 31.3948 20.801 31.3125 20.5938 31.3125ZM25.2812 12.5625H23.7188C23.5115 12.5625 23.3128 12.6448 23.1663 12.7913C23.0198 12.9378 22.9375 13.1365 22.9375 13.3438V14.9062C22.9375 15.1135 23.0198 15.3122 23.1663 15.4587C23.3128 15.6052 23.5115 15.6875 23.7188 15.6875H25.2812C25.4885 15.6875 25.6872 15.6052 25.8337 15.4587C25.9802 15.3122 26.0625 15.1135 26.0625 14.9062V13.3438C26.0625 13.1365 25.9802 12.9378 25.8337 12.7913C25.6872 12.6448 25.4885 12.5625 25.2812 12.5625ZM29.9688 12.5625H28.4062C28.199 12.5625 28.0003 12.6448 27.8538 12.7913C27.7073 12.9378 27.625 13.1365 27.625 13.3438V14.9062C27.625 15.1135 27.7073 15.3122 27.8538 15.4587C28.0003 15.6052 28.199 15.6875 28.4062 15.6875H29.9688C30.176 15.6875 30.3747 15.6052 30.5212 15.4587C30.6677 15.3122 30.75 15.1135 30.75 14.9062V13.3438C30.75 13.1365 30.6677 12.9378 30.5212 12.7913C30.3747 12.6448 30.176 12.5625 29.9688 12.5625ZM34.6562 12.5625H33.0938C32.8865 12.5625 32.6878 12.6448 32.5413 12.7913C32.3948 12.9378 32.3125 13.1365 32.3125 13.3438V14.9062C32.3125 15.1135 32.3948 15.3122 32.5413 15.4587C32.6878 15.6052 32.8865 15.6875 33.0938 15.6875H34.6562C34.8635 15.6875 35.0622 15.6052 35.2087 15.4587C35.3552 15.3122 35.4375 15.1135 35.4375 14.9062V13.3438C35.4375 13.1365 35.3552 12.9378 35.2087 12.7913C35.0622 12.6448 34.8635 12.5625 34.6562 12.5625ZM15.9062 21.9375H14.3438C14.1365 21.9375 13.9378 22.0198 13.7913 22.1663C13.6448 22.3128 13.5625 22.5115 13.5625 22.7188V24.2812C13.5625 24.4885 13.6448 24.6872 13.7913 24.8337C13.9378 24.9802 14.1365 25.0625 14.3438 25.0625H15.9062C16.1135 25.0625 16.3122 24.9802 16.4587 24.8337C16.6052 24.6872 16.6875 24.4885 16.6875 24.2812V22.7188C16.6875 22.5115 16.6052 22.3128 16.4587 22.1663C16.3122 22.0198 16.1135 21.9375 15.9062 21.9375ZM15.9062 31.3125H14.3438C14.1365 31.3125 13.9378 31.3948 13.7913 31.5413C13.6448 31.6878 13.5625 31.8865 13.5625 32.0938V33.6562C13.5625 33.8635 13.6448 34.0622 13.7913 34.2087C13.9378 34.3552 14.1365 34.4375 14.3438 34.4375H15.9062C16.1135 34.4375 16.3122 34.3552 16.4587 34.2087C16.6052 34.0622 16.6875 33.8635 16.6875 33.6562V32.0938C16.6875 31.8865 16.6052 31.6878 16.4587 31.5413C16.3122 31.3948 16.1135 31.3125 15.9062 31.3125ZM15.9062 26.625H14.3438C14.1365 26.625 13.9378 26.7073 13.7913 26.8538C13.6448 27.0003 13.5625 27.199 13.5625 27.4062V28.9688C13.5625 29.176 13.6448 29.3747 13.7913 29.5212C13.9378 29.6677 14.1365 29.75 14.3438 29.75H15.9062C16.1135 29.75 16.3122 29.6677 16.4587 29.5212C16.6052 29.3747 16.6875 29.176 16.6875 28.9688V27.4062C16.6875 27.199 16.6052 27.0003 16.4587 26.8538C16.3122 26.7073 16.1135 26.625 15.9062 26.625ZM15.9062 17.25H14.3438C14.1365 17.25 13.9378 17.3323 13.7913 17.4788C13.6448 17.6253 13.5625 17.824 13.5625 18.0312V19.5938C13.5625 19.801 13.6448 19.9997 13.7913 20.1462C13.9378 20.2927 14.1365 20.375 14.3438 20.375H15.9062C16.1135 20.375 16.3122 20.2927 16.4587 20.1462C16.6052 19.9997 16.6875 19.801 16.6875 19.5938V18.0312C16.6875 17.824 16.6052 17.6253 16.4587 17.4788C16.3122 17.3323 16.1135 17.25 15.9062 17.25ZM15.9062 12.5625H14.3438C14.1365 12.5625 13.9378 12.6448 13.7913 12.7913C13.6448 12.9378 13.5625 13.1365 13.5625 13.3438V14.9062C13.5625 15.1135 13.6448 15.3122 13.7913 15.4587C13.9378 15.6052 14.1365 15.6875 14.3438 15.6875H15.9062C16.1135 15.6875 16.3122 15.6052 16.4587 15.4587C16.6052 15.3122 16.6875 15.1135 16.6875 14.9062V13.3438C16.6875 13.1365 16.6052 12.9378 16.4587 12.7913C16.3122 12.6448 16.1135 12.5625 15.9062 12.5625ZM20.5938 12.5625H19.0312C18.824 12.5625 18.6253 12.6448 18.4788 12.7913C18.3323 12.9378 18.25 13.1365 18.25 13.3438V14.9062C18.25 15.1135 18.3323 15.3122 18.4788 15.4587C18.6253 15.6052 18.824 15.6875 19.0312 15.6875H20.5938C20.801 15.6875 20.9997 15.6052 21.1462 15.4587C21.2927 15.3122 21.375 15.1135 21.375 14.9062V13.3438C21.375 13.1365 21.2927 12.9378 21.1462 12.7913C20.9997 12.6448 20.801 12.5625 20.5938 12.5625Z" fill="white"/>
</svg>
